<?xml version="1.0" encoding="utf-8"?>
<!-- Generator: Adobe Illustrator 16.0.4, SVG Export Plug-In . SVG Version: 6.00 Build 0)  -->
<!DOCTYPE svg PUBLIC "-//W3C//DTD SVG 1.1//EN" "http://www.w3.org/Graphics/SVG/1.1/DTD/svg11.dtd">
<svg version="1.1" id="Layer_1" xmlns="http://www.w3.org/2000/svg" xmlns:xlink="http://www.w3.org/1999/xlink" x="0px" y="0px"
	 width="275px" height="267.464px" viewBox="0 0 275 267.464" enable-background="new 0 0 275 267.464" xml:space="preserve">
<g>
	<path fill="#EAEADA" d="M31.979,212.608c-11.579-5.805-20.199-13.229-25.62-22.065C2.198,183.76-0.001,176.182,0,168.63V99.251
		c-0.001-7.55,2.198-15.127,6.36-21.911c5.421-8.836,14.041-16.26,25.62-22.063l106.226-53.25l105.131,53.28
		c11.478,5.817,20.021,13.252,25.389,22.1c4.106,6.767,6.276,14.321,6.275,21.847v69.379c0.001,7.523-2.169,15.078-6.275,21.846
		c-5.368,8.847-13.911,16.281-25.389,22.099l-105.131,53.28L31.979,212.608z"/>
	<g>
		<defs>
			<rect id="SVGID_1_" x="14.879" y="19.435" width="122.621" height="159.629"/>
		</defs>
		<clipPath id="SVGID_2_">
			<use xlink:href="#SVGID_1_"  overflow="visible"/>
		</clipPath>
		<path clip-path="url(#SVGID_2_)" fill="#53C2B9" d="M137.5,161.673l-92.255-46.246c-9.417-4.721-14.819-10.618-14.819-16.177
			c-0.001-5.561,5.401-11.458,14.819-16.179L137.5,36.826V19.435L38.279,69.173C17.918,79.38,14.878,92.398,14.879,99.25
			c0,6.852,3.039,19.87,23.4,30.077l99.221,49.737V161.673z"/>
	</g>
	<g>
		<defs>
			<rect id="SVGID_3_" x="14.879" y="54.126" width="122.621" height="159.629"/>
		</defs>
		<clipPath id="SVGID_4_">
			<use xlink:href="#SVGID_3_"  overflow="visible"/>
		</clipPath>
		<path clip-path="url(#SVGID_4_)" fill="#E0DB21" d="M137.5,196.365L45.245,150.12c-9.418-4.722-14.819-10.618-14.819-16.178
			c0-5.561,5.401-11.458,14.819-16.179L137.5,71.518V54.126l-99.221,49.738c-20.361,10.207-23.4,23.225-23.4,30.077
			c0,6.851,3.039,19.871,23.4,30.077l99.221,49.737V196.365z"/>
	</g>
	<g>
		<defs>
			<rect id="SVGID_5_" x="14.879" y="88.817" width="122.621" height="159.629"/>
		</defs>
		<clipPath id="SVGID_6_">
			<use xlink:href="#SVGID_5_"  overflow="visible"/>
		</clipPath>
		<path clip-path="url(#SVGID_6_)" fill="#C64827" d="M45.247,184.811c-9.42-4.723-14.821-10.619-14.82-16.18
			c0-5.56,5.401-11.456,14.819-16.177l92.254-46.247V88.817l-99.22,49.737c-20.361,10.206-23.4,23.226-23.4,30.077
			c-0.001,6.852,3.039,19.87,23.4,30.077l99.22,49.738v-17.392L45.247,184.811z"/>
	</g>
	<path fill="#383C43" d="M161.298,143.612c-1.91,0-3.363-0.645-4.561-1.842c-1.728-1.729-1.658-4.03-1.658-6.496
		c0-2.465-0.069-4.767,1.658-6.496c1.197-1.197,2.65-1.842,4.561-1.842c3.11,0,5.62,1.728,6.22,5.343h-4.101
		c-0.254-0.921-0.76-1.75-2.096-1.75c-0.737,0-1.291,0.3-1.591,0.692c-0.368,0.483-0.621,1.059-0.621,4.053
		c0,2.993,0.253,3.569,0.621,4.055c0.3,0.391,0.854,0.69,1.591,0.69c1.336,0,1.842-0.829,2.096-1.752h4.101
		C166.918,141.883,164.408,143.612,161.298,143.612"/>
	<polygon fill="#383C43" points="179.329,143.474 179.329,136.978 175.046,136.978 175.046,143.474 171.015,143.474 
		171.015,127.074 175.046,127.074 175.046,133.385 179.329,133.385 179.329,127.074 183.361,127.074 183.361,143.474 	"/>
	<path fill="#383C43" d="M197.891,141.77c-1.198,1.197-2.579,1.842-4.583,1.842s-3.388-0.645-4.585-1.842
		c-1.727-1.729-1.658-4.03-1.658-6.496c0-2.464-0.068-4.767,1.658-6.496c1.197-1.197,2.581-1.842,4.585-1.842
		s3.385,0.645,4.583,1.842c1.727,1.729,1.658,4.031,1.658,6.496C199.549,137.74,199.617,140.042,197.891,141.77 M194.919,131.243
		c-0.3-0.392-0.876-0.714-1.611-0.714c-0.737,0-1.313,0.322-1.613,0.714c-0.368,0.483-0.601,1.037-0.601,4.031
		c0,2.993,0.232,3.524,0.601,4.008c0.3,0.393,0.876,0.737,1.613,0.737c0.735,0,1.312-0.345,1.611-0.737
		c0.368-0.483,0.601-1.015,0.601-4.008C195.52,132.279,195.287,131.726,194.919,131.243"/>
	<path fill="#383C43" d="M211.546,143.474l-2.902-6.104h-1.358v6.104h-4.032v-16.399h6.496c3.64,0,5.597,2.58,5.597,5.273
		c0,2.234-1.382,3.639-2.672,4.285l3.547,6.841H211.546z M209.564,130.69h-2.279v3.317h2.279c1.105,0,1.751-0.807,1.751-1.659
		C211.315,131.497,210.67,130.69,209.564,130.69"/>
	<path fill="#383C43" d="M225.108,143.612c-3.409,0-6.197-2.302-6.197-5.896v-10.641h4.032v10.548c0,1.521,0.829,2.396,2.165,2.396
		s2.211-0.876,2.211-2.396v-10.548h4.031v10.641C231.351,141.31,228.517,143.612,225.108,143.612"/>
	<path fill="#383C43" d="M239.984,143.612c-2.511,0-4.561-0.461-6.219-2.164l2.579-2.58c0.852,0.852,2.35,1.151,3.661,1.151
		c1.591,0,2.351-0.529,2.351-1.474c0-0.392-0.092-0.715-0.322-0.969c-0.208-0.207-0.554-0.367-1.083-0.438l-1.981-0.276
		c-1.45-0.208-2.557-0.689-3.293-1.449c-0.761-0.784-1.129-1.891-1.129-3.295c0-2.994,2.258-5.183,5.988-5.183
		c2.352,0,4.123,0.553,5.528,1.958l-2.533,2.534c-1.037-1.038-2.396-0.967-3.108-0.967c-1.406,0-1.982,0.805-1.982,1.519
		c0,0.207,0.068,0.507,0.321,0.761c0.208,0.207,0.555,0.414,1.131,0.484l1.98,0.275c1.475,0.207,2.533,0.668,3.224,1.358
		c0.876,0.852,1.221,2.074,1.221,3.594C246.317,141.792,243.438,143.612,239.984,143.612"/>
</g>
</svg>
